<?xml version='1.0' encoding='iso-8859-1'?>
<!DOCTYPE svg PUBLIC '-//W3C//DTD SVG 1.1//EN' 'http://www.w3.org/Graphics/SVG/1.1/DTD/svg11.dtd'>
<svg version="1.1" xmlns="http://www.w3.org/2000/svg" viewBox="0 0 308.985 308.985" xmlns:xlink="http://www.w3.org/1999/xlink" enable-background="new 0 0 308.985 308.985">
  <g>
    <path d="m302.985,112.666h-296.985c-3.313,0-6,2.687-6,6v71.654c0,3.313 2.687,6 6,6h28.693c3.313,0 6-2.687 6-6 0-14.887 12.111-26.998 26.998-26.998 14.887,0 26.999,12.111 26.999,26.998 0,3.313 2.686,6 6,6h20.805c3.313,0 6-2.687 6-6 0-14.887 12.111-26.998 26.999-26.998 14.887,0 26.998,12.111 26.998,26.998 0,3.313 2.686,6 6,6h20.805c3.314,0 6-2.687 6-6 0-14.887 12.111-26.998 26.999-26.998 14.887,0 26.998,12.111 26.998,26.998 0,3.313 2.687,6 6,6h28.693c3.313,0 6-2.687 6-6v-71.654c-0.002-3.314-2.688-6-6.002-6zm-6,12v23.827h-284.985v-23.827h284.985zm-267.831,59.654h-17.154v-23.827h30.605c-7.049,5.937-11.977,14.317-13.451,23.827zm86.801,0h-9.727c-1.475-9.51-6.403-17.889-13.452-23.827h36.63c-7.048,5.937-11.976,14.317-13.451,23.827zm86.802,0h-9.727c-1.475-9.51-6.403-17.889-13.451-23.827h36.63c-7.05,5.937-11.978,14.317-13.452,23.827zm77.075,0c-1.475-9.51-6.403-17.889-13.451-23.827h30.605v23.827h-17.154z"/>
  </g>
</svg>
